# xmcd
#
# Track frame offsets:
#  150
#  21905
#  43248
#  62213
#  83785
#  105325
#  125045
#  142446
#  163455
#  184018
#  204990
#  224008
#  244354
#  268058
#  289505
#
# Disc length: 4087 seconds
#
# Revision: 0
# Processed by: cddbd v1.4PL0 Copyright (c) Steve Scherf et al.
# Submitted via: AltoMP3_Maker 3.0
#
DISCID=f50ff50f
DTITLE=张信哲 - Jeff信选
DYEAR=1900
DGENRE=
TTITLE0=某某某
TTITLE1=美丽地平线
TTITLE2=信仰
TTITLE3=爱不留
TTITLE4=找钥匙
TTITLE5=我能相信
TTITLE6=难以抗拒你容颜
TTITLE7=点一首歌
TTITLE8=爱就一个字
TTITLE9=回来
TTITLE10=不做你的爱人
TTITLE11=爱如潮水
TTITLE12=宽容
TTITLE13=太想爱你
TTITLE14=有一点动心
EXTD=
EXTT0=
EXTT1=
EXTT2=
EXTT3=
EXTT4=
EXTT5=
EXTT6=
EXTT7=
EXTT8=
EXTT9=
EXTT10=
EXTT11=
EXTT12=
EXTT13=
EXTT14=
PLAYORDER=
